<?xml version="1.0" standalone="no"?>
<!DOCTYPE svg PUBLIC "-//W3C//DTD SVG 20010904//EN"
 "http://www.w3.org/TR/2001/REC-SVG-20010904/DTD/svg10.dtd">
<svg version="1.0" xmlns="http://www.w3.org/2000/svg"
 width="512.000000pt" height="512.000000pt" viewBox="0 0 512.000000 512.000000"
 preserveAspectRatio="xMidYMid meet">

<g transform="translate(0.000000,512.000000) scale(0.100000,-0.100000)"
fill="#E21717" stroke="none">
<path d="M2150 5113 c-137 -23 -266 -60 -345 -98 -183 -88 -326 -265 -376
-465 -19 -75 -17 -273 4 -381 60 -304 249 -720 570 -1254 110 -182 347 -549
381 -590 33 -39 41 -27 50 73 85 998 61 1745 -74 2277 -43 170 -86 293 -133
379 -34 63 -37 66 -77 59z"/>
<path d="M2882 5038 c-55 -115 -85 -203 -126 -370 -118 -482 -150 -1087 -100
-1878 21 -340 36 -482 51 -487 15 -5 249 346 405 607 507 845 677 1363 558
1705 -72 207 -251 379 -462 444 -52 15 -262 61 -282 61 -2 0 -22 -37 -44 -82z"/>
<path d="M753 4383 c-228 -260 -333 -487 -333 -717 1 -261 100 -432 382 -657
240 -191 625 -432 1093 -681 281 -150 305 -161 312 -142 8 22 -251 537 -415
824 -266 465 -564 916 -861 1303 -58 75 -108 137 -112 137 -4 0 -34 -30 -66
-67z"/>
<path d="M4132 4238 c-379 -506 -694 -1003 -995 -1573 -143 -270 -231 -460
-223 -480 5 -14 33 -2 174 71 686 357 1184 681 1406 915 271 285 276 651 12
1033 -54 80 -195 246 -207 246 -4 0 -79 -96 -167 -212z"/>
<path d="M95 3160 c-16 -25 -35 -172 -35 -266 0 -246 88 -461 260 -635 120
-122 242 -192 425 -246 54 -16 126 -18 703 -21 520 -2 642 0 642 10 0 14 -27
33 -270 186 -339 215 -994 593 -1576 910 -73 40 -134 72 -137 72 -3 0 -9 -4
-12 -10z"/>
<path d="M4875 3099 c-855 -467 -1845 -1055 -1845 -1096 0 -11 106 -13 609
-13 657 0 676 1 831 55 261 90 485 334 561 612 30 112 36 309 12 422 -10 47
-22 86 -28 88 -5 1 -68 -29 -140 -68z"/>
<path d="M1435 1849 c-269 -10 -588 -22 -707 -26 l-218 -8 52 -80 c63 -96 222
-258 299 -303 104 -61 162 -77 284 -77 107 0 112 1 201 41 50 22 147 74 215
114 176 104 510 331 506 344 -5 16 -89 16 -632 -5z"/>
<path d="M3054 1859 c-8 -14 -11 -11 126 -106 262 -182 538 -343 657 -382 187
-63 411 14 589 201 65 68 174 218 174 239 0 5 -30 9 -67 9 -38 0 -381 11 -763
25 -382 14 -698 25 -702 25 -4 0 -10 -5 -14 -11z"/>
<path d="M60 430 l0 -420 85 0 85 0 0 170 0 170 195 0 195 0 0 -170 0 -170 85
0 85 0 0 420 0 420 -85 0 -85 0 -2 -167 -3 -168 -190 0 -190 0 -3 168 -2 167
-85 0 -85 0 0 -420z"/>
<path d="M1032 548 c3 -303 3 -303 29 -359 47 -99 123 -157 237 -179 186 -37
350 35 418 182 l29 63 3 298 3 297 -85 0 -85 0 -3 -282 c-3 -264 -4 -285 -24
-318 -68 -117 -260 -117 -328 0 -20 33 -21 54 -24 318 l-3 282 -85 0 -85 0 3
-302z"/>
<path d="M2202 833 c-8 -15 -343 -772 -359 -811 -4 -10 14 -12 83 -10 l87 3
38 85 38 85 193 3 194 2 38 -90 38 -90 88 0 89 0 -10 28 c-6 15 -88 202 -182
417 l-172 390 -77 3 c-65 2 -78 0 -86 -15z m148 -348 c33 -76 60 -140 60 -142
0 -2 -56 -3 -125 -3 -69 0 -125 4 -125 8 0 8 106 257 117 274 8 14 8 13 73
-137z"/>
<path d="M2670 847 c0 -4 258 -744 277 -795 l16 -43 70 3 69 3 93 268 c51 147
94 270 97 272 2 2 46 -120 98 -271 l95 -274 71 0 70 0 103 298 c57 163 123
352 147 420 l43 122 -89 0 -89 0 -81 -252 c-45 -139 -86 -269 -92 -288 -11
-34 -14 -25 -107 253 l-96 287 -70 0 -70 0 -95 -285 c-64 -193 -97 -280 -102
-268 -4 10 -46 138 -93 286 l-86 267 -89 0 c-50 0 -90 -1 -90 -3z"/>
<path d="M4060 430 l0 -420 315 0 315 0 0 80 0 80 -230 0 -230 0 0 100 0 99
153 3 152 3 3 78 3 77 -156 0 -155 0 0 85 0 85 225 0 225 0 0 75 0 75 -310 0
-310 0 0 -420z"/>
<path d="M4900 430 l0 -421 83 3 82 3 3 418 2 417 -85 0 -85 0 0 -420z"/>
</g>
</svg>
