<?xml version="1.0" standalone="no"?>
<!DOCTYPE svg PUBLIC "-//W3C//DTD SVG 20010904//EN"
 "http://www.w3.org/TR/2001/REC-SVG-20010904/DTD/svg10.dtd">
<svg version="1.0" xmlns="http://www.w3.org/2000/svg"
 width="512.000000pt" height="512.000000pt" viewBox="0 0 512.000000 512.000000"
 preserveAspectRatio="xMidYMid meet">

<g transform="translate(0.000000,512.000000) scale(0.100000,-0.100000)"
fill="#000000" stroke="none">
<path d="M2502 5113 c-30 -3 -47 -11 -57 -26 -17 -27 -495 -1338 -495 -1360 0
-33 40 -47 134 -47 70 0 87 3 78 12 -7 7 -12 24 -12 38 0 24 468 1326 490
1363 9 15 6 17 -22 17 -18 0 -42 2 -53 4 -11 1 -39 1 -63 -1z"/>
<path d="M1670 4954 c-52 -19 -163 -68 -246 -109 -638 -317 -1118 -891 -1315
-1570 -72 -248 -100 -450 -100 -718 0 -562 172 -1075 511 -1532 95 -129 376
-410 505 -505 266 -198 536 -330 862 -424 48 -14 54 -13 74 3 22 17 21 18 -82
55 -150 55 -368 164 -505 254 -868 570 -1307 1573 -1133 2592 41 241 111 456
224 685 147 302 306 515 560 752 214 201 448 357 696 464 52 22 98 44 102 48
11 11 -20 41 -41 40 -9 0 -60 -16 -112 -35z"/>
<path d="M2556 3647 c61 -29 115 -81 146 -140 20 -36 23 -57 23 -147 l-1 -105
-322 -885 c-178 -487 -330 -895 -338 -907 l-14 -23 89 0 c70 0 93 4 110 18 15
12 118 283 347 912 278 766 326 905 331 966 11 134 -47 238 -163 295 -59 29
-79 34 -163 37 l-96 3 51 -24z"/>
<path d="M4449 3651 c74 -35 118 -78 152 -146 26 -54 31 -74 31 -141 0 -95 27
-11 -322 -969 -170 -467 -291 -786 -308 -810 -34 -48 -112 -109 -167 -130 -39
-15 -38 -15 62 -11 81 3 113 9 156 29 61 28 127 83 157 132 11 17 154 398 317
846 l297 814 1 95 c0 87 -3 100 -30 148 -58 105 -148 154 -295 160 l-95 3 44
-20z"/>
<path d="M1811 3323 c-14 -13 -124 -303 -352 -928 -182 -500 -337 -920 -345
-932 l-14 -23 89 0 c70 0 93 4 110 18 15 12 122 294 356 935 184 506 339 925
346 933 19 23 -162 20 -190 -3z"/>
<path d="M3708 3323 c-16 -19 -548 -1469 -548 -1495 0 -36 33 -48 130 -48 73
0 91 3 82 12 -7 7 -12 24 -12 38 0 27 525 1476 542 1498 8 9 -10 12 -84 12
-78 0 -98 -3 -110 -17z"/>
<path d="M3011 1416 c-23 -28 -501 -1359 -495 -1378 8 -28 32 -33 123 -30 l80
3 -5 27 c-4 20 62 213 236 691 133 366 246 673 251 683 9 17 4 18 -84 18 -70
0 -98 -4 -106 -14z"/>
</g>
</svg>
