<?xml version="1.0" standalone="no"?>
<!DOCTYPE svg PUBLIC "-//W3C//DTD SVG 20010904//EN"
 "http://www.w3.org/TR/2001/REC-SVG-20010904/DTD/svg10.dtd">
<svg version="1.0" xmlns="http://www.w3.org/2000/svg"
 width="512.000000pt" height="512.000000pt" viewBox="0 0 512.000000 512.000000"
 preserveAspectRatio="xMidYMid meet">

<g transform="translate(0.000000,512.000000) scale(0.100000,-0.100000)"
fill="#1B98F5" stroke="none">
<path d="M1452 2969 c-66 -11 -102 -30 -135 -68 -47 -57 -52 -88 -52 -346 0
-271 4 -294 65 -349 65 -58 87 -61 470 -61 300 0 352 2 401 17 64 20 108 63
130 125 19 53 20 502 1 555 -16 46 -78 103 -129 119 -47 15 -673 22 -751 8z
m642 -215 c24 -23 24 -365 0 -388 -23 -24 -555 -24 -578 0 -13 13 -16 45 -16
194 0 149 3 181 16 194 13 14 54 16 289 16 235 0 276 -2 289 -16z"/>
<path d="M5 2958 c-3 -7 -4 -191 -3 -408 l3 -395 117 -3 c65 -1 119 -1 120 0
1 2 5 132 8 291 3 179 9 288 15 289 6 1 79 -83 163 -187 85 -105 191 -236 238
-293 l84 -102 203 2 202 3 3 403 2 402 -120 0 -120 0 -2 -282 c-2 -195 -6
-282 -14 -285 -6 -2 -113 122 -237 276 -125 154 -230 282 -234 284 -5 2 -101
8 -216 12 -168 5 -208 4 -212 -7z"/>
<path d="M2455 2957 c-3 -6 -4 -190 -3 -407 l3 -395 125 0 125 0 3 208 2 208
143 -128 c78 -70 184 -165 234 -210 l93 -83 162 2 c112 2 163 7 165 15 2 6
-104 102 -237 213 -221 184 -240 203 -226 218 8 10 103 89 210 177 107 88 195
165 196 171 0 12 -116 24 -232 24 -78 0 -44 24 -325 -228 l-183 -163 0 184 c0
129 -4 187 -12 195 -17 17 -237 17 -243 -1z"/>
<path d="M3595 2957 c-3 -6 -4 -190 -3 -407 l3 -395 125 0 125 0 3 401 2 401
-52 7 c-91 10 -198 7 -203 -7z"/>
<path d="M4357 2958 c-25 -20 -449 -779 -443 -794 4 -11 33 -14 128 -14 68 0
128 4 134 8 6 4 26 35 45 69 l34 63 252 0 253 0 21 -42 c12 -24 30 -55 41 -70
l19 -28 134 0 c82 0 136 4 140 10 4 6 -93 188 -214 404 l-221 393 -98 6 c-145
10 -206 8 -225 -5z m229 -338 c35 -63 63 -123 64 -132 0 -16 -13 -18 -139 -18
-85 0 -142 4 -146 10 -10 17 126 261 143 258 9 -2 44 -55 78 -118z"/>
</g>
</svg>
