<?xml version="1.0" standalone="no"?>
<!DOCTYPE svg PUBLIC "-//W3C//DTD SVG 20010904//EN"
 "http://www.w3.org/TR/2001/REC-SVG-20010904/DTD/svg10.dtd">
<svg version="1.0" xmlns="http://www.w3.org/2000/svg"
 width="512.000000pt" height="512.000000pt"  viewBox="0 0 512.000000 512.000000"
 preserveAspectRatio="xMidYMid meet">

<g transform="translate(0.000000,512.000000) scale(0.100000,-0.100000)"
fill="#E21717" stroke="none">
<path d="M4031 5107 c-7 -9 -12 -126 -13 -363 l-3 -349 -349 -3 c-237 -1 -354
-6 -363 -13 -18 -16 -19 -334 0 -346 6 -4 170 -10 362 -13 l350 -5 5 -350 c3
-192 9 -356 13 -362 10 -16 313 -18 337 -3 13 8 16 63 20 362 l5 353 350 5
c193 3 356 9 363 13 9 6 12 52 12 172 0 120 -3 166 -12 172 -7 4 -170 10 -363
13 l-350 5 -5 350 c-3 193 -9 356 -13 363 -12 18 -330 17 -346 -1z"/>
<path d="M9 4376 c-15 -16 -12 -4349 3 -4364 9 -9 506 -12 2177 -12 1192 0
2172 4 2179 8 10 7 12 287 10 1368 l-3 1359 -165 3 c-146 2 -166 1 -177 -15
-10 -13 -13 -262 -13 -1178 0 -890 -3 -1164 -12 -1173 -9 -9 -426 -12 -1814
-12 -1625 0 -1804 2 -1818 16 -14 14 -16 193 -16 1819 0 1626 2 1805 16 1819
14 14 132 16 1154 16 1028 0 1138 2 1144 16 3 9 6 85 6 170 0 115 -3 156 -12
159 -27 9 -2649 10 -2659 1z"/>
<path d="M1472 3278 c-13 -13 -18 -301 -6 -332 5 -14 38 -16 263 -16 187 0
260 -3 269 -12 17 -17 17 -1429 0 -1446 -9 -9 -81 -12 -263 -12 -182 0 -254
-3 -263 -12 -18 -18 -17 -322 2 -337 9 -8 208 -10 727 -9 l714 3 0 175 0 175
-265 5 c-146 3 -266 7 -267 8 -2 1 -3 403 -3 893 0 594 -3 897 -10 910 -10 18
-26 19 -448 19 -327 0 -441 -3 -450 -12z"/>
</g>
</svg>
