<?xml version="1.0" standalone="no"?>
<!DOCTYPE svg PUBLIC "-//W3C//DTD SVG 20010904//EN"
 "http://www.w3.org/TR/2001/REC-SVG-20010904/DTD/svg10.dtd">
<svg version="1.0" xmlns="http://www.w3.org/2000/svg"
 width="512.000000pt" height="512.000000pt" viewBox="0 0 512.000000 512.000000"
 preserveAspectRatio="xMidYMid meet">

<g transform="translate(0.000000,512.000000) scale(0.100000,-0.100000)"
fill="#000000" stroke="none">
<path d="M141 2935 c-84 -26 -132 -93 -133 -184 -1 -104 39 -154 196 -242 111
-62 136 -87 136 -137 0 -46 -25 -72 -70 -72 -47 0 -69 25 -72 83 l-3 52 -98 3
-97 3 1 -53 c2 -139 78 -208 240 -216 195 -10 290 65 289 230 -1 58 -29 118
-75 155 -20 17 -80 55 -131 83 -133 74 -160 115 -109 165 30 30 54 31 89 4 19
-15 26 -30 26 -55 l0 -34 90 0 90 0 0 45 c0 88 -48 150 -135 174 -54 15 -180
13 -234 -4z"/>
<path d="M2544 2937 c-102 -27 -154 -91 -154 -192 0 -67 26 -123 72 -158 18
-14 73 -49 123 -78 112 -66 135 -88 135 -132 0 -50 -21 -72 -70 -72 -53 0 -70
22 -70 87 l0 48 -101 0 -102 0 6 -65 c8 -80 26 -117 77 -154 97 -70 308 -63
388 12 32 30 41 48 52 109 7 37 7 69 -1 106 -14 71 -57 113 -187 186 -134 75
-163 112 -126 164 11 16 25 22 54 22 46 0 70 -26 70 -78 l0 -33 88 3 87 3 3
32 c8 76 -36 150 -106 180 -47 20 -177 25 -238 10z"/>
<path d="M4767 2940 c-83 -21 -138 -69 -157 -138 -13 -50 -13 -426 1 -477 15
-53 73 -110 129 -126 25 -7 79 -13 120 -13 100 0 156 18 201 63 48 48 59 91
59 239 l0 122 -130 0 -130 0 0 -55 0 -55 40 0 40 0 0 -59 c0 -81 -11 -107 -53
-120 -44 -15 -84 -1 -97 34 -6 15 -10 109 -10 210 0 101 4 195 10 210 11 29
53 49 86 41 36 -10 54 -34 54 -77 l0 -39 95 0 95 0 0 33 c0 87 -48 162 -123
192 -50 20 -176 28 -230 15z"/>
<path d="M721 2588 c-35 -189 -65 -353 -68 -365 -5 -23 -4 -23 96 -23 56 0
101 3 101 8 -1 23 95 641 99 637 2 -3 25 -148 51 -322 l46 -318 97 -3 c63 -2
97 1 97 8 0 9 -110 615 -126 693 l-6 27 -162 0 -162 0 -63 -342z"/>
<path d="M1406 2888 c-3 -24 -8 -188 -11 -365 l-5 -323 88 0 89 0 6 197 c4
108 7 253 8 322 l1 126 43 -225 c23 -124 50 -269 60 -322 l17 -98 93 0 94 0
10 53 c6 28 33 173 61 321 27 148 52 271 55 274 3 3 5 -142 5 -321 l0 -327 90
0 90 0 0 108 c0 60 -3 224 -7 365 l-6 257 -148 0 -147 0 -6 -27 c-5 -22 -40
-240 -87 -531 -1 -4 -22 119 -48 273 l-46 280 -147 3 -147 3 -5 -43z"/>
<path d="M3080 2627 c0 -294 1 -304 23 -347 17 -36 34 -51 78 -73 48 -24 69
-28 141 -28 142 -1 211 31 249 116 17 36 19 71 19 338 l0 298 -92 -3 -93 -3
-3 -289 c-2 -252 -4 -292 -19 -308 -22 -24 -78 -23 -103 2 -19 19 -20 33 -20
310 l0 290 -90 0 -90 0 0 -303z"/>
<path d="M3792 2568 l3 -363 89 -3 89 -3 -5 303 c-3 167 -3 296 0 288 3 -8 45
-143 93 -300 l86 -285 129 0 129 0 3 363 2 362 -91 0 -92 0 5 -285 c2 -157 1
-280 -3 -273 -3 7 -42 136 -85 285 l-79 273 -138 0 -137 0 2 -362z"/>
</g>
</svg>
