<?xml version="1.0" standalone="no"?>
<!DOCTYPE svg PUBLIC "-//W3C//DTD SVG 20010904//EN"
 "http://www.w3.org/TR/2001/REC-SVG-20010904/DTD/svg10.dtd">
<svg version="1.0" xmlns="http://www.w3.org/2000/svg"
 width="512.000000pt" height="512.000000pt" viewBox="0 0 512.000000 512.000000"
 preserveAspectRatio="xMidYMid meet">
    <g transform="translate(0.000000,512.000000) scale(0.100000,-0.100000)"
fill="#000000" stroke="none">
        <path d="M1705 3199 c-41 -40 -75 -78 -75 -85 0 -14 113 -129 141 -144 10 -6
24 -4 38 6 l22 16 -50 53 c-28 30 -51 61 -51 70 0 9 23 40 50 69 51 54 51 58
12 80 -8 5 -39 -18 -87 -65z"/>
        <path d="M3950 2886 c-182 -51 -332 -207 -375 -388 -64 -271 108 -552 380
-623 75 -19 130 -20 70 -1 -188 60 -336 233 -367 429 -32 208 70 421 256 534
32 20 77 42 100 49 37 11 38 13 11 12 -16 0 -50 -5 -75 -12z"/>
        <path d="M72 2879 c-33 -12 -62 -59 -62 -98 0 -28 16 -59 68 -136 462 -685
493 -726 580 -763 26 -11 68 -22 94 -25 l47 -4 -57 37 c-31 20 -73 56 -93 81
-35 43 -463 668 -507 740 -25 42 -29 106 -7 135 8 10 15 22 15 25 0 10 -56 16
-78 8z"/>
        <path d="M1753 2878 c-17 -5 -41 -21 -52 -37 -20 -28 -21 -41 -21 -473 l0
-443 23 -28 c25 -31 71 -47 107 -36 14 4 19 7 13 8 -7 1 -19 14 -28 31 -22 43
-23 896 0 940 8 15 20 30 27 32 26 9 -38 14 -69 6z"/>
        <path d="M2073 2870 c-61 -37 -69 -91 -23 -163 16 -26 131 -196 255 -379 279
-410 322 -454 458 -472 55 -7 62 5 12 23 -62 22 -125 100 -340 415 -329 483
-326 477 -289 548 13 25 14 32 2 39 -20 13 -40 11 -75 -11z"/>
        <path d="M1382 2863 c-12 -10 -103 -139 -203 -288 -101 -148 -216 -316 -256
-373 -40 -56 -73 -107 -73 -111 0 -5 7 -12 16 -15 33 -13 61 -5 91 27 31 32
174 239 373 537 57 85 116 171 132 191 15 20 28 40 28 43 0 14 -89 5 -108 -11z"/>
        <path d="M3397 2860 c-14 -11 -105 -138 -203 -282 -98 -145 -213 -314 -257
-377 -79 -115 -83 -130 -35 -131 42 0 72 30 161 159 170 246 437 642 437 647
0 14 -81 1 -103 -16z"/>
        <path d="M4736 2676 c195 -91 245 -359 97 -518 -25 -26 -68 -59 -96 -74 l-52
-26 50 6 c110 14 215 97 255 202 46 122 13 263 -82 351 -48 43 -139 83 -191
83 -31 0 -30 -1 19 -24z"/>
    </g>
</svg>