<?xml version="1.0" standalone="no"?>
<!DOCTYPE svg PUBLIC "-//W3C//DTD SVG 20010904//EN"
 "http://www.w3.org/TR/2001/REC-SVG-20010904/DTD/svg10.dtd">
<svg version="1.0" xmlns="http://www.w3.org/2000/svg"
 width="512.000000pt" height="512.000000pt" viewBox="0 0 512.000000 512.000000"
 preserveAspectRatio="xMidYMid meet">

<g transform="translate(0.000000,512.000000) scale(0.100000,-0.100000)"
fill="#000000" stroke="none">
<path d="M1759 5107 c-9 -7 -20 -21 -26 -32 -6 -11 -52 -244 -104 -517 l-93
-498 -36 0 c-20 0 -62 -7 -93 -15 -148 -38 -254 -136 -308 -285 l-24 -65 0
-1135 0 -1135 24 -65 c54 -149 160 -247 308 -285 31 -8 73 -15 93 -15 l36 0
93 -498 c52 -273 98 -506 104 -517 23 -45 10 -44 679 -45 l637 0 26 23 c25 21
32 49 115 487 48 256 91 484 95 508 7 41 8 42 44 42 53 0 147 26 203 57 67 37
143 121 181 200 30 65 32 75 37 218 l5 150 85 5 c102 6 149 30 183 94 21 40
22 51 22 331 0 284 0 291 -23 330 -38 66 -81 89 -181 95 l-86 5 -3 88 -3 87
81 0 c91 0 134 14 173 56 41 44 49 106 45 334 -3 183 -5 209 -23 239 -37 62
-65 75 -173 81 l-97 5 -5 150 c-5 143 -7 153 -37 218 -38 79 -114 163 -181
200 -57 31 -150 57 -204 57 -24 0 -38 5 -38 13 0 6 -43 235 -94 507 -89 467
-96 496 -121 517 l-26 23 -637 0 c-485 -1 -641 -4 -653 -13z m1206 -169 c2
-13 39 -203 80 -423 41 -220 78 -412 81 -427 l6 -28 -716 0 c-394 0 -716 2
-716 5 0 10 161 860 166 878 5 16 40 17 549 17 l545 0 5 -22z m472 -1066 c54
-28 104 -78 129 -128 18 -38 19 -72 19 -1184 0 -1090 -1 -1147 -18 -1182 -25
-49 -79 -103 -130 -131 l-42 -22 -980 0 -980 0 -53 29 c-57 32 -102 81 -130
143 -16 35 -17 116 -17 1163 0 1037 1 1128 17 1162 37 82 93 134 177 164 29
11 229 13 1001 11 l965 -2 42 -23z m453 -797 l0 -195 -70 0 -70 0 0 195 0 195
70 0 70 0 0 -195z m-6 -711 c3 -9 6 -121 6 -249 0 -128 -3 -240 -6 -249 -5
-12 -21 -16 -70 -16 l-64 0 0 265 0 265 64 0 c49 0 65 -4 70 -16z m-758 -1331
c-3 -16 -40 -208 -81 -428 -41 -220 -78 -410 -80 -423 l-5 -22 -545 0 c-509 0
-544 1 -549 18 -5 17 -166 867 -166 877 0 3 322 5 716 5 l716 0 -6 -27z"/>
<path d="M1864 3404 c-17 -8 -81 -66 -142 -128 -140 -142 -167 -192 -166 -311
1 -71 6 -93 48 -195 204 -499 563 -849 1061 -1035 91 -34 107 -37 176 -33 107
6 153 32 282 157 148 144 170 185 147 273 -10 36 -37 68 -158 191 -149 151
-172 169 -229 181 -63 14 -109 -9 -207 -104 l-92 -89 -80 46 c-107 62 -245
202 -298 301 l-38 73 81 83 c112 115 135 181 92 264 -24 47 -297 317 -334 331
-40 16 -107 13 -143 -5z m211 -274 l130 -130 -105 -105 c-122 -123 -124 -129
-68 -248 70 -146 165 -264 291 -360 85 -66 223 -137 278 -144 39 -6 41 -4 147
100 l108 107 132 -133 132 -132 -102 -102 c-57 -56 -116 -107 -131 -112 -69
-26 -154 -3 -349 95 -366 183 -635 483 -792 880 -40 102 -43 128 -21 182 13
31 199 232 215 232 3 0 64 -58 135 -130z"/>
</g>
</svg>
