<?xml version="1.0" standalone="no"?>
<!DOCTYPE svg PUBLIC "-//W3C//DTD SVG 20010904//EN"
 "http://www.w3.org/TR/2001/REC-SVG-20010904/DTD/svg10.dtd">
<svg version="1.0" xmlns="http://www.w3.org/2000/svg"
 width="512.000000pt" height="512.000000pt" viewBox="0 0 512.000000 512.000000"
 preserveAspectRatio="xMidYMid meet">

<g transform="translate(0.000000,512.000000) scale(0.100000,-0.100000)"
fill="#000000" stroke="none">
<path d="M208 4601 c-100 -39 -176 -128 -198 -231 -8 -41 -10 -446 -8 -1540
l3 -1485 24 -53 c29 -64 112 -143 178 -168 45 -18 101 -19 996 -22 624 -2 948
1 945 7 -1 6 -59 114 -128 240 l-125 231 -707 0 -708 0 0 1280 0 1280 2080 0
2080 0 0 -1280 0 -1280 -105 0 -105 0 0 -179 c0 -98 -3 -206 -7 -241 l-6 -62
224 4 c182 4 233 8 272 22 65 25 149 103 178 168 l24 53 3 1485 c2 1094 0
1499 -8 1540 -22 104 -98 192 -200 231 -49 18 -117 19 -2353 19 -2213 -1
-2304 -2 -2349 -19z m4742 -1596 c16 -8 40 -30 54 -48 79 -103 6 -251 -124
-251 -86 0 -149 57 -158 142 -11 121 121 212 228 157z"/>
<path d="M2644 3721 c-39 -18 -80 -61 -100 -106 -5 -11 -11 -401 -14 -868 l-5
-847 -124 155 c-164 206 -203 237 -301 238 -111 1 -180 -65 -180 -170 0 -75
18 -115 184 -413 154 -275 436 -775 490 -868 89 -153 272 -270 496 -319 130
-28 425 -25 535 5 233 64 384 186 479 385 84 175 81 140 81 1012 l0 770 -23
38 c-74 118 -263 121 -339 5 -26 -38 -28 -51 -31 -155 -2 -62 -7 -113 -12
-113 -4 0 -10 48 -12 108 -3 91 -7 114 -28 150 -75 133 -288 126 -351 -12 -14
-31 -19 -65 -19 -143 0 -62 -4 -103 -10 -103 -6 0 -10 32 -10 75 0 105 -16
170 -52 211 -43 49 -82 66 -148 67 -70 0 -122 -24 -164 -76 -30 -38 -31 -42
-34 -158 -2 -65 -8 -119 -13 -119 -5 0 -9 230 -9 565 0 535 -1 568 -19 603
-10 20 -27 45 -38 54 -53 49 -157 62 -229 29z"/>
</g>
</svg>
